<svg width="329.443" height="73.049" viewBox="0 0 329.443 73.049" xmlns="http://www.w3.org/2000/svg"><g id="svgGroup" stroke-linecap="round" fill-rule="evenodd" font-size="9pt" stroke="#ffffff" stroke-width="0.25mm" fill="none" style="stroke:#ffffff;stroke-width:0.25mm;fill:none"><path d="M 245.801 0.977 L 262.939 0.977 L 262.939 47.511 A 31.201 31.201 0 0 1 262.211 54.406 A 23.907 23.907 0 0 1 259.57 61.207 Q 256.201 66.993 249.902 70.02 A 29.75 29.75 0 0 1 242.09 72.468 A 41.185 41.185 0 0 1 235.01 73.048 A 40.498 40.498 0 0 1 226.732 72.252 Q 219.453 70.731 214.551 66.309 A 22.547 22.547 0 0 1 207.405 53.072 A 32.327 32.327 0 0 1 206.934 47.852 L 206.934 0.977 L 224.17 0.977 L 224.17 48.194 A 18.798 18.798 0 0 0 224.784 52.724 Q 226.416 58.621 232.328 59.648 A 15.688 15.688 0 0 0 235.01 59.864 A 15.473 15.473 0 0 0 238.083 59.578 Q 241.187 58.949 243.066 56.934 A 8.631 8.631 0 0 0 244.785 54.087 Q 245.737 51.596 245.797 47.91 A 30.786 30.786 0 0 0 245.801 47.413 L 245.801 0.977 Z M 329.443 0.977 L 329.443 14.21 L 308.105 14.21 L 308.105 72.071 L 290.967 72.071 L 290.967 14.21 L 270.02 14.21 L 270.02 0.977 L 329.443 0.977 Z M 50.049 72.071 L 45.898 58.79 L 22.412 58.79 L 18.311 72.071 L 0 72.071 L 26.074 0.977 L 42.188 0.977 L 68.457 72.071 L 50.049 72.071 Z M 102.49 72.071 L 73.633 72.071 L 73.633 0.977 L 99.17 0.977 A 59.957 59.957 0 0 1 106.921 1.444 Q 110.741 1.944 113.863 2.977 A 23.537 23.537 0 0 1 120.044 6.007 A 16.201 16.201 0 0 1 127.04 17.865 A 23.125 23.125 0 0 1 127.197 20.606 A 20.005 20.005 0 0 1 126.694 25.201 A 15.161 15.161 0 0 1 124.658 30.03 A 14.134 14.134 0 0 1 119.231 34.882 A 18.374 18.374 0 0 1 117.188 35.792 A 17.579 17.579 0 0 1 121.545 37.55 A 13.726 13.726 0 0 1 125.732 41.261 A 14.941 14.941 0 0 1 128.501 48.089 A 19.862 19.862 0 0 1 128.711 51.026 A 26.184 26.184 0 0 1 128.015 57.255 A 16.793 16.793 0 0 1 122.095 66.725 A 21.415 21.415 0 0 1 115.667 70.139 Q 110.202 72.013 102.49 72.071 Z M 198.34 34.718 L 198.34 37.989 A 47.733 47.733 0 0 1 197.375 47.791 A 37.441 37.441 0 0 1 194.482 56.397 A 29.764 29.764 0 0 1 188.3 65.056 A 27.559 27.559 0 0 1 183.521 68.726 A 29.855 29.855 0 0 1 169.849 72.962 A 36.521 36.521 0 0 1 167.334 73.048 A 33.667 33.667 0 0 1 158.014 71.799 A 28.798 28.798 0 0 1 151.221 68.873 A 28.286 28.286 0 0 1 140.634 57.654 A 34.028 34.028 0 0 1 140.259 56.934 A 37.864 37.864 0 0 1 136.663 45.466 A 48.283 48.283 0 0 1 136.133 39.112 L 136.133 35.108 A 48.359 48.359 0 0 1 137.061 25.42 A 37.417 37.417 0 0 1 139.966 16.676 A 29.311 29.311 0 0 1 146.71 7.504 A 27.868 27.868 0 0 1 150.952 4.347 A 30.071 30.071 0 0 1 164.707 0.087 A 36.716 36.716 0 0 1 167.236 0.001 A 32.431 32.431 0 0 1 177.152 1.476 A 28.757 28.757 0 0 1 183.35 4.298 A 28.698 28.698 0 0 1 193.841 15.522 A 34.646 34.646 0 0 1 194.36 16.529 A 38.001 38.001 0 0 1 197.89 28.238 A 48.614 48.614 0 0 1 198.34 34.718 Z M 180.908 38.282 L 180.908 35.011 A 50.965 50.965 0 0 0 180.596 29.169 Q 179.857 22.784 177.368 18.922 A 12.236 12.236 0 0 0 173.913 15.315 Q 171.451 13.664 168.186 13.458 A 15.054 15.054 0 0 0 167.236 13.429 A 11.362 11.362 0 0 0 156.534 19.632 Q 153.931 24.381 153.613 32.765 L 153.564 37.989 Q 153.564 48.438 157.031 54.054 A 11.835 11.835 0 0 0 160.69 57.88 Q 162.997 59.361 166.039 59.616 A 15.522 15.522 0 0 0 167.334 59.669 A 12.107 12.107 0 0 0 172.181 58.732 Q 175.277 57.395 177.344 54.151 Q 180.842 48.661 180.908 38.383 A 61.101 61.101 0 0 0 180.908 38.282 Z M 102.783 41.847 L 90.771 41.847 L 90.771 58.888 L 102.002 58.888 Q 106.641 58.888 109.131 56.764 Q 111.621 54.64 111.621 50.782 Q 111.621 43.73 106.056 42.244 A 12.978 12.978 0 0 0 102.783 41.847 Z M 34.131 20.899 L 26.514 45.558 L 41.797 45.558 L 34.131 20.899 Z M 90.771 14.21 L 90.771 30.616 L 99.707 30.616 A 25.205 25.205 0 0 0 102.463 30.452 Q 105.275 30.117 106.962 29.099 A 5.994 5.994 0 0 0 107.715 28.565 A 6.43 6.43 0 0 0 109.844 25.041 Q 110.103 23.971 110.107 22.698 A 12.706 12.706 0 0 0 110.107 22.657 A 12.268 12.268 0 0 0 109.891 20.27 Q 109.359 17.593 107.52 16.187 A 7.789 7.789 0 0 0 105.365 15.062 Q 103.281 14.326 100.178 14.226 A 31.155 31.155 0 0 0 99.17 14.21 L 90.771 14.21 Z" vector-effect="non-scaling-stroke"/></g></svg>