<svg width="449.756" height="73.098" viewBox="0 0 449.756 73.098" xmlns="http://www.w3.org/2000/svg"><g id="svgGroup" stroke-linecap="round" fill-rule="evenodd" font-size="9pt" stroke="#ffffff" stroke-width="0.25mm" fill="none" style="stroke:#ffffff;stroke-width:0.25mm;fill:none"><path d="M 196.046 1.026 L 196.046 72.12 L 179.005 72.12 L 153.809 27.882 L 153.809 72.12 L 136.671 72.12 L 136.671 1.026 L 153.809 1.026 L 178.956 45.265 L 178.956 1.026 L 196.046 1.026 Z M 42.481 48.048 L 59.522 48.048 A 27.814 27.814 0 0 1 58.017 56.05 A 24.347 24.347 0 0 1 55.518 61.158 A 23.778 23.778 0 0 1 46.652 69.257 A 28.906 28.906 0 0 1 45.24 69.972 A 32.36 32.36 0 0 1 35.746 72.727 A 41.427 41.427 0 0 1 30.128 73.097 A 34.587 34.587 0 0 1 20.501 71.826 A 25.814 25.814 0 0 1 8.057 63.966 Q 0.001 54.835 0.001 38.185 L 0.001 34.669 A 50.735 50.735 0 0 1 0.797 25.465 A 37.729 37.729 0 0 1 3.638 16.383 A 28.904 28.904 0 0 1 9.347 8.067 A 26.563 26.563 0 0 1 14.112 4.274 Q 20.948 0.001 29.932 0.001 Q 42.872 0.001 50.733 6.813 A 25.373 25.373 0 0 1 58.792 20.262 A 35.22 35.22 0 0 1 59.669 25.587 L 42.579 25.587 Q 42.462 21.718 41.324 19.149 A 8.597 8.597 0 0 0 39.307 16.261 A 9.514 9.514 0 0 0 35.999 14.325 Q 34.54 13.807 32.74 13.588 A 23.332 23.332 0 0 0 29.932 13.429 A 13.408 13.408 0 0 0 26.123 13.938 A 9.564 9.564 0 0 0 20.557 18.214 Q 17.944 22.412 17.511 31.005 A 68.451 68.451 0 0 0 17.432 33.497 L 17.432 38.526 A 72.623 72.623 0 0 0 17.611 43.809 Q 18.004 49.184 19.265 52.586 A 13.961 13.961 0 0 0 20.289 54.786 A 9.426 9.426 0 0 0 26.709 59.325 A 15.891 15.891 0 0 0 30.128 59.669 A 20.142 20.142 0 0 0 33.548 59.397 Q 35.429 59.073 36.922 58.36 A 9.484 9.484 0 0 0 39.161 56.886 A 8.861 8.861 0 0 0 41.501 53.422 Q 42.051 52.014 42.296 50.267 A 20.781 20.781 0 0 0 42.481 48.048 Z M 370.215 48.048 L 387.256 48.048 A 27.814 27.814 0 0 1 385.752 56.05 A 24.347 24.347 0 0 1 383.253 61.158 A 23.778 23.778 0 0 1 374.386 69.257 A 28.906 28.906 0 0 1 372.974 69.972 A 32.36 32.36 0 0 1 363.481 72.727 A 41.427 41.427 0 0 1 357.862 73.097 A 34.587 34.587 0 0 1 348.235 71.826 A 25.814 25.814 0 0 1 335.792 63.966 Q 327.735 54.835 327.735 38.185 L 327.735 34.669 A 50.735 50.735 0 0 1 328.531 25.465 A 37.729 37.729 0 0 1 331.373 16.383 A 28.904 28.904 0 0 1 337.081 8.067 A 26.563 26.563 0 0 1 341.846 4.274 Q 348.682 0.001 357.667 0.001 Q 370.606 0.001 378.467 6.813 A 25.373 25.373 0 0 1 386.527 20.262 A 35.22 35.22 0 0 1 387.403 25.587 L 370.313 25.587 Q 370.197 21.718 369.058 19.149 A 8.597 8.597 0 0 0 367.042 16.261 A 9.514 9.514 0 0 0 363.733 14.325 Q 362.274 13.807 360.475 13.588 A 23.332 23.332 0 0 0 357.667 13.429 A 13.408 13.408 0 0 0 353.858 13.938 A 9.564 9.564 0 0 0 348.292 18.214 Q 345.679 22.412 345.245 31.005 A 68.451 68.451 0 0 0 345.167 33.497 L 345.167 38.526 A 72.623 72.623 0 0 0 345.345 43.809 Q 345.739 49.184 347 52.586 A 13.961 13.961 0 0 0 348.023 54.786 A 9.426 9.426 0 0 0 354.444 59.325 A 15.891 15.891 0 0 0 357.862 59.669 A 20.142 20.142 0 0 0 361.283 59.397 Q 363.164 59.073 364.657 58.36 A 9.484 9.484 0 0 0 366.895 56.886 A 8.861 8.861 0 0 0 369.235 53.422 Q 369.785 52.014 370.03 50.267 A 20.781 20.781 0 0 0 370.215 48.048 Z M 261.28 1.026 L 261.28 14.259 L 239.942 14.259 L 239.942 72.12 L 222.803 72.12 L 222.803 14.259 L 201.856 14.259 L 201.856 1.026 L 261.28 1.026 Z M 449.756 1.026 L 449.756 14.259 L 428.419 14.259 L 428.419 72.12 L 411.28 72.12 L 411.28 14.259 L 390.333 14.259 L 390.333 1.026 L 449.756 1.026 Z M 307.178 72.12 L 303.028 58.839 L 279.542 58.839 L 275.44 72.12 L 257.13 72.12 L 283.204 1.026 L 299.317 1.026 L 325.587 72.12 L 307.178 72.12 Z M 127.833 34.767 L 127.833 38.038 A 47.733 47.733 0 0 1 126.868 47.84 A 37.441 37.441 0 0 1 123.975 56.446 A 29.764 29.764 0 0 1 117.793 65.105 A 27.559 27.559 0 0 1 113.013 68.775 A 29.855 29.855 0 0 1 99.342 73.011 A 36.521 36.521 0 0 1 96.827 73.097 A 33.667 33.667 0 0 1 87.507 71.848 A 28.798 28.798 0 0 1 80.714 68.922 A 28.286 28.286 0 0 1 70.127 57.703 A 34.028 34.028 0 0 1 69.752 56.983 A 37.864 37.864 0 0 1 66.156 45.515 A 48.283 48.283 0 0 1 65.626 39.161 L 65.626 35.157 A 48.359 48.359 0 0 1 66.554 25.469 A 37.417 37.417 0 0 1 69.459 16.725 A 29.311 29.311 0 0 1 76.203 7.553 A 27.868 27.868 0 0 1 80.445 4.396 A 30.071 30.071 0 0 1 94.2 0.136 A 36.716 36.716 0 0 1 96.729 0.05 A 32.431 32.431 0 0 1 106.644 1.525 A 28.757 28.757 0 0 1 112.842 4.347 A 28.698 28.698 0 0 1 123.333 15.57 A 34.646 34.646 0 0 1 123.853 16.578 A 38.001 38.001 0 0 1 127.383 28.287 A 48.614 48.614 0 0 1 127.833 34.767 Z M 110.401 38.331 L 110.401 35.06 A 50.965 50.965 0 0 0 110.089 29.218 Q 109.35 22.833 106.861 18.971 A 12.236 12.236 0 0 0 103.406 15.364 Q 100.943 13.713 97.678 13.507 A 15.054 15.054 0 0 0 96.729 13.478 A 11.362 11.362 0 0 0 86.027 19.681 Q 83.424 24.43 83.106 32.814 L 83.057 38.038 Q 83.057 48.487 86.524 54.103 A 11.835 11.835 0 0 0 90.183 57.929 Q 92.49 59.41 95.532 59.665 A 15.522 15.522 0 0 0 96.827 59.718 A 12.107 12.107 0 0 0 101.674 58.781 Q 104.77 57.444 106.837 54.2 Q 110.335 48.71 110.4 38.432 A 61.101 61.101 0 0 0 110.401 38.331 Z M 291.26 20.948 L 283.643 45.607 L 298.926 45.607 L 291.26 20.948 Z"/></g></svg>