<svg width="528.272" height="73.049" viewBox="0 0 528.272 73.049" xmlns="http://www.w3.org/2000/svg"><g id="svgGroup" stroke-linecap="round" fill-rule="evenodd" font-size="9pt" stroke="#ffffff" stroke-width="0.25mm" fill="none" style="stroke:#ffffff;stroke-width:0.25mm;fill:none"><path d="M 173.096 72.071 L 160.547 46.974 L 151.27 46.974 L 151.27 72.071 L 134.131 72.071 L 134.131 0.977 L 162.109 0.977 A 46.032 46.032 0 0 1 169.815 1.582 Q 177.095 2.82 181.885 6.593 A 18.281 18.281 0 0 1 188.84 19.371 A 26.62 26.62 0 0 1 189.014 22.462 Q 189.014 28.724 186.876 33.179 A 17.397 17.397 0 0 1 186.011 34.767 A 18.735 18.735 0 0 1 181.253 39.907 A 26.547 26.547 0 0 1 176.611 42.677 L 191.455 71.339 L 191.455 72.071 L 173.096 72.071 Z M 304.736 30.567 L 304.736 43.751 L 277.1 43.751 L 277.1 72.071 L 259.961 72.071 L 259.961 0.977 L 307.52 0.977 L 307.52 14.21 L 277.1 14.21 L 277.1 30.567 L 304.736 30.567 Z M 252.734 0.977 L 252.734 14.21 L 231.396 14.21 L 231.396 72.071 L 214.258 72.071 L 214.258 14.21 L 193.311 14.21 L 193.311 0.977 L 252.734 0.977 Z M 400.83 0.977 L 400.83 58.888 L 430.664 58.888 L 430.664 72.071 L 383.691 72.071 L 383.691 0.977 L 400.83 0.977 Z M 28.076 47.95 L 17.139 47.95 L 17.139 72.071 L 0 72.071 L 0 0.977 L 28.369 0.977 A 37.667 37.667 0 0 1 36.053 1.728 A 29.464 29.464 0 0 1 42.798 3.98 A 23.529 23.529 0 0 1 49.744 8.942 A 21.933 21.933 0 0 1 52.515 12.525 A 23.024 23.024 0 0 1 55.927 23.793 A 27.902 27.902 0 0 1 55.957 25.099 A 23.428 23.428 0 0 1 54.68 32.996 A 19.959 19.959 0 0 1 48.511 41.725 Q 41.944 47.214 31.068 47.863 A 50.265 50.265 0 0 1 28.076 47.95 Z M 125.293 34.718 L 125.293 37.989 A 47.733 47.733 0 0 1 124.329 47.791 A 37.441 37.441 0 0 1 121.436 56.397 A 29.764 29.764 0 0 1 115.253 65.056 A 27.559 27.559 0 0 1 110.474 68.726 A 29.855 29.855 0 0 1 96.802 72.962 A 36.521 36.521 0 0 1 94.287 73.048 A 33.667 33.667 0 0 1 84.967 71.799 A 28.798 28.798 0 0 1 78.174 68.873 A 28.286 28.286 0 0 1 67.587 57.654 A 34.028 34.028 0 0 1 67.212 56.934 A 37.864 37.864 0 0 1 63.616 45.466 A 48.283 48.283 0 0 1 63.086 39.112 L 63.086 35.108 A 48.359 48.359 0 0 1 64.014 25.42 A 37.417 37.417 0 0 1 66.919 16.676 A 29.311 29.311 0 0 1 73.663 7.504 A 27.868 27.868 0 0 1 77.905 4.347 A 30.071 30.071 0 0 1 91.661 0.087 A 36.716 36.716 0 0 1 94.189 0.001 A 32.431 32.431 0 0 1 104.105 1.476 A 28.757 28.757 0 0 1 110.303 4.298 A 28.698 28.698 0 0 1 120.794 15.522 A 34.646 34.646 0 0 1 121.313 16.529 A 38.001 38.001 0 0 1 124.843 28.238 A 48.614 48.614 0 0 1 125.293 34.718 Z M 374.854 34.718 L 374.854 37.989 A 47.733 47.733 0 0 1 373.889 47.791 A 37.441 37.441 0 0 1 370.996 56.397 A 29.764 29.764 0 0 1 364.814 65.056 A 27.559 27.559 0 0 1 360.034 68.726 A 29.855 29.855 0 0 1 346.363 72.962 A 36.521 36.521 0 0 1 343.848 73.048 A 33.667 33.667 0 0 1 334.528 71.799 A 28.798 28.798 0 0 1 327.734 68.873 A 28.286 28.286 0 0 1 317.148 57.654 A 34.028 34.028 0 0 1 316.772 56.934 A 37.864 37.864 0 0 1 313.177 45.466 A 48.283 48.283 0 0 1 312.646 39.112 L 312.646 35.108 A 48.359 48.359 0 0 1 313.575 25.42 A 37.417 37.417 0 0 1 316.479 16.676 A 29.311 29.311 0 0 1 323.224 7.504 A 27.868 27.868 0 0 1 327.466 4.347 A 30.071 30.071 0 0 1 341.221 0.087 A 36.716 36.716 0 0 1 343.75 0.001 A 32.431 32.431 0 0 1 353.665 1.476 A 28.757 28.757 0 0 1 359.863 4.298 A 28.698 28.698 0 0 1 370.354 15.522 A 34.646 34.646 0 0 1 370.874 16.529 A 38.001 38.001 0 0 1 374.404 28.238 A 48.614 48.614 0 0 1 374.854 34.718 Z M 528.271 34.718 L 528.271 37.989 A 47.733 47.733 0 0 1 527.307 47.791 A 37.441 37.441 0 0 1 524.414 56.397 A 29.764 29.764 0 0 1 518.232 65.056 A 27.559 27.559 0 0 1 513.452 68.726 A 29.855 29.855 0 0 1 499.781 72.962 A 36.521 36.521 0 0 1 497.266 73.048 A 33.667 33.667 0 0 1 487.945 71.799 A 28.798 28.798 0 0 1 481.152 68.873 A 28.286 28.286 0 0 1 470.566 57.654 A 34.028 34.028 0 0 1 470.19 56.934 A 37.864 37.864 0 0 1 466.595 45.466 A 48.283 48.283 0 0 1 466.064 39.112 L 466.064 35.108 A 48.359 48.359 0 0 1 466.993 25.42 A 37.417 37.417 0 0 1 469.897 16.676 A 29.311 29.311 0 0 1 476.642 7.504 A 27.868 27.868 0 0 1 480.884 4.347 A 30.071 30.071 0 0 1 494.639 0.087 A 36.716 36.716 0 0 1 497.168 0.001 A 32.431 32.431 0 0 1 507.083 1.476 A 28.757 28.757 0 0 1 513.281 4.298 A 28.698 28.698 0 0 1 523.772 15.522 A 34.646 34.646 0 0 1 524.292 16.529 A 38.001 38.001 0 0 1 527.821 28.238 A 48.614 48.614 0 0 1 528.271 34.718 Z M 456.152 0.977 L 456.152 72.071 L 439.063 72.071 L 439.063 0.977 L 456.152 0.977 Z M 107.861 38.282 L 107.861 35.011 A 50.965 50.965 0 0 0 107.549 29.169 Q 106.81 22.784 104.321 18.922 A 12.236 12.236 0 0 0 100.866 15.315 Q 98.404 13.664 95.139 13.458 A 15.054 15.054 0 0 0 94.189 13.429 A 11.362 11.362 0 0 0 83.487 19.632 Q 80.884 24.381 80.566 32.765 L 80.518 37.989 Q 80.518 48.438 83.984 54.054 A 11.835 11.835 0 0 0 87.643 57.88 Q 89.95 59.361 92.992 59.616 A 15.522 15.522 0 0 0 94.287 59.669 A 12.107 12.107 0 0 0 99.134 58.732 Q 102.23 57.395 104.297 54.151 Q 107.795 48.661 107.861 38.383 A 61.101 61.101 0 0 0 107.861 38.282 Z M 357.422 38.282 L 357.422 35.011 A 50.965 50.965 0 0 0 357.11 29.169 Q 356.371 22.784 353.882 18.922 A 12.236 12.236 0 0 0 350.427 15.315 Q 347.964 13.664 344.699 13.458 A 15.054 15.054 0 0 0 343.75 13.429 A 11.362 11.362 0 0 0 333.048 19.632 Q 330.445 24.381 330.127 32.765 L 330.078 37.989 Q 330.078 48.438 333.545 54.054 A 11.835 11.835 0 0 0 337.204 57.88 Q 339.51 59.361 342.553 59.616 A 15.522 15.522 0 0 0 343.848 59.669 A 12.107 12.107 0 0 0 348.694 58.732 Q 351.791 57.395 353.857 54.151 Q 357.356 48.661 357.421 38.383 A 61.101 61.101 0 0 0 357.422 38.282 Z M 510.84 38.282 L 510.84 35.011 A 50.965 50.965 0 0 0 510.528 29.169 Q 509.789 22.784 507.3 18.922 A 12.236 12.236 0 0 0 503.845 15.315 Q 501.382 13.664 498.117 13.458 A 15.054 15.054 0 0 0 497.168 13.429 A 11.362 11.362 0 0 0 486.466 19.632 Q 483.862 24.381 483.545 32.765 L 483.496 37.989 Q 483.496 48.438 486.963 54.054 A 11.835 11.835 0 0 0 490.622 57.88 Q 492.928 59.361 495.971 59.616 A 15.522 15.522 0 0 0 497.266 59.669 A 12.107 12.107 0 0 0 502.112 58.732 Q 505.209 57.395 507.275 54.151 Q 510.774 48.661 510.839 38.383 A 61.101 61.101 0 0 0 510.84 38.282 Z M 17.139 14.21 L 17.139 34.718 L 28.369 34.718 A 15.984 15.984 0 0 0 31.251 34.475 Q 32.891 34.174 34.176 33.5 A 7.849 7.849 0 0 0 35.962 32.227 A 8.118 8.118 0 0 0 38.236 28.199 Q 38.553 26.916 38.573 25.399 A 15.548 15.548 0 0 0 38.574 25.196 Q 38.574 20.39 36.074 17.448 A 9.61 9.61 0 0 0 35.889 17.237 A 8.973 8.973 0 0 0 30.5 14.371 A 12.808 12.808 0 0 0 28.564 14.21 L 17.139 14.21 Z M 151.27 14.21 L 151.27 33.741 L 162.109 33.741 A 14.797 14.797 0 0 0 164.925 33.491 Q 166.521 33.181 167.756 32.488 A 7.312 7.312 0 0 0 169.458 31.178 Q 171.782 28.761 171.916 24.545 A 16.452 16.452 0 0 0 171.924 24.024 Q 171.924 19.434 169.434 16.822 A 7.937 7.937 0 0 0 165.894 14.711 Q 164.644 14.335 163.14 14.241 A 16.527 16.527 0 0 0 162.109 14.21 L 151.27 14.21 Z"/></g></svg>