<svg width="539.6" height="73.098" viewBox="0 0 539.6 73.098" xmlns="http://www.w3.org/2000/svg"><g id="svgGroup" stroke-linecap="round" fill-rule="evenodd" font-size="9pt" stroke="#ffffff" stroke-width="0.25mm" fill="none" style="stroke:#ffffff;stroke-width:0.25mm;fill:none"><path d="M 317.871 1.026 L 317.871 72.12 L 300.83 72.12 L 275.635 27.882 L 275.635 72.12 L 258.496 72.12 L 258.496 1.026 L 275.635 1.026 L 300.781 45.265 L 300.781 1.026 L 317.871 1.026 Z M 247.656 1.026 L 247.656 72.12 L 230.615 72.12 L 230.615 42.433 L 205.371 42.433 L 205.371 72.12 L 188.232 72.12 L 188.232 1.026 L 205.371 1.026 L 205.371 29.249 L 230.615 29.249 L 230.615 1.026 L 247.656 1.026 Z M 110.742 29.249 L 110.742 41.993 L 83.789 41.993 L 83.789 58.937 L 115.625 58.937 L 115.625 72.12 L 66.65 72.12 L 66.65 1.026 L 115.723 1.026 L 115.723 14.259 L 83.789 14.259 L 83.789 29.249 L 110.742 29.249 Z M 163.086 48.048 L 180.127 48.048 A 27.814 27.814 0 0 1 178.622 56.05 A 24.347 24.347 0 0 1 176.123 61.158 A 23.778 23.778 0 0 1 167.257 69.257 A 28.906 28.906 0 0 1 165.845 69.972 A 32.36 32.36 0 0 1 156.351 72.727 A 41.427 41.427 0 0 1 150.732 73.097 A 34.587 34.587 0 0 1 141.106 71.826 A 25.814 25.814 0 0 1 128.662 63.966 Q 120.605 54.835 120.605 38.185 L 120.605 34.669 A 50.735 50.735 0 0 1 121.401 25.465 A 37.729 37.729 0 0 1 124.243 16.383 A 28.904 28.904 0 0 1 129.952 8.067 A 26.563 26.563 0 0 1 134.717 4.274 Q 141.553 0.001 150.537 0.001 Q 163.477 0.001 171.338 6.813 A 25.373 25.373 0 0 1 179.397 20.262 A 35.22 35.22 0 0 1 180.273 25.587 L 163.184 25.587 Q 163.067 21.718 161.929 19.149 A 8.597 8.597 0 0 0 159.912 16.261 A 9.514 9.514 0 0 0 156.604 14.325 Q 155.145 13.807 153.345 13.588 A 23.332 23.332 0 0 0 150.537 13.429 A 13.408 13.408 0 0 0 146.728 13.938 A 9.564 9.564 0 0 0 141.162 18.214 Q 138.549 22.412 138.116 31.005 A 68.451 68.451 0 0 0 138.037 33.497 L 138.037 38.526 A 72.623 72.623 0 0 0 138.216 43.809 Q 138.609 49.184 139.87 52.586 A 13.961 13.961 0 0 0 140.894 54.786 A 9.426 9.426 0 0 0 147.314 59.325 A 15.891 15.891 0 0 0 150.732 59.669 A 20.142 20.142 0 0 0 154.153 59.397 Q 156.034 59.073 157.527 58.36 A 9.484 9.484 0 0 0 159.766 56.886 A 8.861 8.861 0 0 0 162.106 53.422 Q 162.655 52.014 162.901 50.267 A 20.781 20.781 0 0 0 163.086 48.048 Z M 399.365 48.048 L 416.406 48.048 A 27.814 27.814 0 0 1 414.901 56.05 A 24.347 24.347 0 0 1 412.402 61.158 A 23.778 23.778 0 0 1 403.536 69.257 A 28.906 28.906 0 0 1 402.124 69.972 A 32.36 32.36 0 0 1 392.631 72.727 A 41.427 41.427 0 0 1 387.012 73.097 A 34.587 34.587 0 0 1 377.385 71.826 A 25.814 25.814 0 0 1 364.941 63.966 Q 356.885 54.835 356.885 38.185 L 356.885 34.669 A 50.735 50.735 0 0 1 357.681 25.465 A 37.729 37.729 0 0 1 360.522 16.383 A 28.904 28.904 0 0 1 366.231 8.067 A 26.563 26.563 0 0 1 370.996 4.274 Q 377.832 0.001 386.816 0.001 Q 399.756 0.001 407.617 6.813 A 25.373 25.373 0 0 1 415.676 20.262 A 35.22 35.22 0 0 1 416.553 25.587 L 399.463 25.587 Q 399.347 21.718 398.208 19.149 A 8.597 8.597 0 0 0 396.191 16.261 A 9.514 9.514 0 0 0 392.883 14.325 Q 391.424 13.807 389.624 13.588 A 23.332 23.332 0 0 0 386.816 13.429 A 13.408 13.408 0 0 0 383.007 13.938 A 9.564 9.564 0 0 0 377.441 18.214 Q 374.829 22.412 374.395 31.005 A 68.451 68.451 0 0 0 374.316 33.497 L 374.316 38.526 A 72.623 72.623 0 0 0 374.495 43.809 Q 374.888 49.184 376.149 52.586 A 13.961 13.961 0 0 0 377.173 54.786 A 9.426 9.426 0 0 0 383.593 59.325 A 15.891 15.891 0 0 0 387.012 59.669 A 20.142 20.142 0 0 0 390.433 59.397 Q 392.313 59.073 393.806 58.36 A 9.484 9.484 0 0 0 396.045 56.886 A 8.861 8.861 0 0 0 398.385 53.422 Q 398.935 52.014 399.18 50.267 A 20.781 20.781 0 0 0 399.365 48.048 Z M 59.424 1.026 L 59.424 14.259 L 38.086 14.259 L 38.086 72.12 L 20.947 72.12 L 20.947 14.259 L 0 14.259 L 0 1.026 L 59.424 1.026 Z M 469.043 72.12 L 464.893 58.839 L 441.406 58.839 L 437.305 72.12 L 418.994 72.12 L 445.068 1.026 L 461.182 1.026 L 487.451 72.12 L 469.043 72.12 Z M 509.766 1.026 L 509.766 58.937 L 539.6 58.937 L 539.6 72.12 L 492.627 72.12 L 492.627 1.026 L 509.766 1.026 Z M 346.973 1.026 L 346.973 72.12 L 329.883 72.12 L 329.883 1.026 L 346.973 1.026 Z M 453.125 20.948 L 445.508 45.607 L 460.791 45.607 L 453.125 20.948 Z" vector-effect="non-scaling-stroke"/></g></svg>